HIERARCHY
ROOT Hips
{
	OFFSET 0.00 0.00 0.00
	CHANNELS 6 Xposition Yposition Zposition Xrotation Yrotation Zrotation
	JOINT Spine
	{
		OFFSET 0.00000 1.72418 2.58627
		CHANNELS 3 Xrotation Yrotation Zrotation
		JOINT Spine1
		{
			OFFSET 0.00000 0.59880 3.39597
			CHANNELS 3 Xrotation Yrotation Zrotation
			JOINT Spine2
			{
				OFFSET 0.00000 0.30055 3.43524
				CHANNELS 3 Xrotation Yrotation Zrotation
				JOINT Spine3
				{
					OFFSET 0.00000 0.00000 3.44836
					CHANNELS 3 Xrotation Yrotation Zrotation
					JOINT Neck
					{
						OFFSET 0.00000 -1.29313 9.05195
						CHANNELS 3 Xrotation Yrotation Zrotation
						JOINT Head
						{
							OFFSET 0.00000 -0.82335 4.66946
							CHANNELS 3 Xrotation Yrotation Zrotation
							End Site
							{
								OFFSET 0.00000 0.00001 5.58203
							}
						}
					}
					JOINT RightShoulder
					{
						OFFSET -1.18828 -1.98046 6.41673
						CHANNELS 3 Xrotation Yrotation Zrotation
						JOINT RightArm
						{
							OFFSET -5.90180 0.00000 0.00000
							CHANNELS 3 Xrotation Yrotation Zrotation
							JOINT RightForeArm
							{
								OFFSET -11.45951 0.00000 0.00000
								CHANNELS 3 Xrotation Yrotation Zrotation
								JOINT RightHand
								{
									OFFSET -10.63451 0.00000 0.00000
									CHANNELS 3 Xrotation Yrotation Zrotation
									JOINT RightHandEnd
									{
										OFFSET -2.86944 0.00000 0.00000
										CHANNELS 3 Xrotation Yrotation Zrotation
										End Site
										{
											OFFSET -2.86944 0.00000 0.00000
										}
									}
									JOINT RightHandThumb1
									{
										OFFSET -1.14778 -1.91296 -0.76518
										CHANNELS 3 Yrotation Xrotation Zrotation
										End Site
										{
											OFFSET -2.77167 -0.74267 0.00000
										}
									}
								}
							}
						}
					}
					JOINT LeftShoulder
					{
						OFFSET 1.18828 -1.98046 6.41673
						CHANNELS 3 Xrotation Yrotation Zrotation
						JOINT LeftArm
						{
							OFFSET 5.90180 0.00000 0.00000
							CHANNELS 3 Xrotation Yrotation Zrotation
							JOINT LeftForeArm
							{
								OFFSET 11.45951 0.00000 0.00000
								CHANNELS 3 Xrotation Yrotation Zrotation
								JOINT LeftHand
								{
									OFFSET 10.63451 0.00000 0.00000
									CHANNELS 3 Xrotation Yrotation Zrotation
									JOINT LeftHandEnd
									{
										OFFSET 2.86944 0.00000 0.00000
										CHANNELS 3 Xrotation Yrotation Zrotation
										End Site
										{
											OFFSET 2.86944 0.00000 0.00000
										}
									}
									JOINT LeftHandThumb1
									{
										OFFSET 1.14778 -1.91296 -0.76518
										CHANNELS 3 Yrotation Xrotation Zrotation
										End Site
										{
											OFFSET 2.77167 -0.74267 0.00000
										}
									}
								}
							}
						}
					}
				}
			}
		}
	}
	JOINT RightUpLeg
	{
		OFFSET -3.52524 0.00000 -1.02984
		CHANNELS 3 Xrotation Yrotation Zrotation
		JOINT RightLeg
		{
			OFFSET 0.00001 0.00000 -17.80965
			CHANNELS 3 Xrotation Yrotation Zrotation
			JOINT RightFoot
			{
				OFFSET 0.00001 0.00000 -17.00908
				CHANNELS 3 Xrotation Yrotation Zrotation
				JOINT RightToeBase
				{
					OFFSET 0.00000 -5.55853 -2.02314
					CHANNELS 3 Xrotation Yrotation Zrotation
					End Site
					{
						OFFSET 0.00000 -2.85188 -0.00000
					}
				}
			}
		}
	}
	JOINT LeftUpLeg
	{
		OFFSET 3.52524 0.00000 -1.02984
		CHANNELS 3 Xrotation Yrotation Zrotation
		JOINT LeftLeg
		{
			OFFSET 0.00001 0.00000 -17.80965
			CHANNELS 3 Xrotation Yrotation Zrotation
			JOINT LeftFoot
			{
				OFFSET 0.00001 0.00000 -17.00908
				CHANNELS 3 Xrotation Yrotation Zrotation
				JOINT LeftToeBase
				{
					OFFSET 0.00000 -5.55853 -2.02314
					CHANNELS 3 Xrotation Yrotation Zrotation
					End Site
					{
						OFFSET 0.00000 -2.85188 -0.00000
					}
				}
			}
		}
	}
}
MOTION
Frames: 18
Frame Time: 0.008342
 1.8372 -102.5555 36.3021 -2.6869 4.8921 -174.7211 1.8750 1.9442 -0.5724 0.5910 -0.0374 -0.0115 2.0762 0.2248 0.2677 0.8449 0.0102 0.0756 6.2133 0.0355 -1.4006 5.8901 1.6854 -2.8715 6.0658 2.0938 -1.4025 -5.8375 -6.4375 6.1430 0.0000 0.0000 21.2733 -11.1054 7.8705 2.2465 0.0000 -0.0000 -0.0000 -0.0000 -0.0000 0.0000 9.3323 -2.8148 1.0280 -7.0494 12.9697 1.6452 -0.0000 -0.0000 -22.0010 -7.7245 -12.6796 -4.8276 0.0000 -0.0000 -0.0000 -0.0000 0.0000 -0.0000 -13.1784 10.0448 -18.3310 36.6056 0.0000 0.0000 -18.4232 -4.8342 -8.8859 -11.2851 0.0000 -0.0000 -8.0504 1.9051 15.0144 12.7438 0.0000 0.0000 -6.9817 5.8866 -0.4152 -0.3035 0.0000 -0.0000
 1.8205 -102.5458 36.3063 -2.6588 4.8715 -174.7571 1.8963 1.9680 -0.5836 0.6015 -0.0444 -0.0168 2.0511 0.1902 0.2283 0.8230 -0.0003 0.0794 6.0931 0.0320 -1.3877 5.7817 1.6812 -2.8171 6.0016 2.1997 -1.3649 -5.7872 -6.2675 6.1471 0.0000 0.0000 21.1492 -11.1204 7.8014 2.2732 0.0000 -0.0000 -0.0000 0.0000 -0.0000 0.0000 9.3146 -2.9459 1.0211 -7.1499 12.8445 1.8402 -0.0000 -0.0000 -21.9897 -7.7123 -12.6939 -4.8156 0.0000 -0.0000 0.0000 -0.0000 0.0000 0.0000 -13.2727 10.0950 -18.3944 36.7650 0.0000 0.0000 -18.5850 -4.9319 -8.8203 -11.6166 0.0000 -0.0000 -7.9772 1.9131 15.0321 12.6848 0.0000 0.0000 -6.9677 5.8592 -0.3957 -0.3245 0.0000 -0.0000
 1.8004 -102.5326 36.3122 -2.6229 4.8305 -174.8019 1.9213 1.9824 -0.5979 0.6129 -0.0476 -0.0211 2.0216 0.1409 0.1785 0.7968 -0.0127 0.0821 5.9353 0.0264 -1.3716 5.6402 1.6759 -2.7501 5.9245 2.3354 -1.3211 -5.7358 -6.0504 6.1453 0.0000 0.0000 21.0009 -11.1359 7.6852 2.3041 -0.0000 0.0000 0.0000 -0.0000 -0.0000 0.0000 9.2914 -3.1141 1.0120 -7.2793 12.6801 2.0872 -0.0000 -0.0000 -21.9667 -7.6969 -12.7246 -4.8034 0.0000 -0.0000 -0.0000 -0.0000 0.0000 -0.0000 -13.3716 10.1335 -18.4849 36.8686 0.0000 0.0000 -18.7894 -5.0683 -8.6913 -12.0722 0.0000 -0.0000 -7.8873 1.9070 15.0498 12.6156 0.0000 0.0000 -6.9539 5.8222 -0.3653 -0.3497 0.0000 -0.0000
 1.7771 -102.5157 36.3198 -2.5822 4.7760 -174.8544 1.9454 1.9972 -0.6142 0.6256 -0.0481 -0.0235 1.9901 0.0743 0.1145 0.7654 -0.0270 0.0869 5.7432 0.0200 -1.3528 5.4669 1.6698 -2.6717 5.8357 2.4949 -1.2751 -5.6750 -5.7795 6.1425 0.0000 0.0000 20.8265 -11.1616 7.5143 2.3400 0.0000 -0.0000 -0.0000 0.0000 -0.0000 -0.0000 9.2649 -3.3149 1.0017 -7.4308 12.4750 2.3763 -0.0000 -0.0000 -21.9252 -7.6861 -12.7680 -4.7934 0.0000 0.0000 -0.0000 -0.0000 -0.0000 0.0000 -13.4707 10.1651 -18.6077 36.8855 0.0000 0.0000 -19.0261 -5.2341 -8.4892 -12.6174 0.0000 -0.0000 -7.7832 1.8942 15.0628 12.5365 0.0000 0.0000 -6.9390 5.7767 -0.3187 -0.3787 0.0000 -0.0000
 1.7517 -102.4950 36.3288 -2.5416 4.7053 -174.9106 1.9631 2.0097 -0.6304 0.6385 -0.0549 -0.0320 1.9567 0.0053 0.0455 0.7310 -0.0466 0.0933 5.5222 0.0116 -1.3336 5.2639 1.6615 -2.5849 5.7394 2.6766 -1.2318 -5.6144 -5.4683 6.1367 0.0000 0.0000 20.6304 -11.1954 7.2900 2.3816 0.0000 0.0000 -0.0000 0.0000 -0.0000 -0.0000 9.2336 -3.5434 0.9848 -7.6014 12.2296 2.7041 -0.0000 -0.0000 -21.8643 -7.6856 -12.8162 -4.7851 -0.0000 -0.0000 -0.0000 0.0000 0.0000 -0.0000 -13.5616 10.1812 -18.7698 36.7772 0.0000 0.0000 -19.2740 -5.4139 -8.2137 -13.1975 0.0000 -0.0000 -7.6721 1.8706 15.0700 12.4514 0.0000 0.0000 -6.9247 5.7242 -0.2578 -0.4109 0.0000 -0.0000
 1.7255 -102.4699 36.3391 -2.4907 4.6188 -174.9672 1.9841 2.0164 -0.6479 0.6506 -0.0594 -0.0395 1.9225 -0.0752 -0.0324 0.6949 -0.0667 0.0994 5.2803 -0.0003 -1.3143 5.0361 1.6515 -2.4919 5.6381 2.8741 -1.1918 -5.5543 -5.1236 6.1255 0.0000 0.0000 20.4183 -11.2412 7.0131 2.4260 0.0000 -0.0000 -0.0000 -0.0000 -0.0000 -0.0000 9.1976 -3.7928 0.9647 -7.7759 11.9458 3.0524 -0.0000 -0.0000 -21.7780 -7.7035 -12.8632 -4.7801 -0.0000 0.0000 0.0000 0.0000 0.0000 0.0000 -13.6161 10.1750 -18.9809 36.5078 0.0000 0.0000 -19.5081 -5.5882 -7.8671 -13.7397 0.0000 -0.0000 -7.5439 1.8332 15.0712 12.3629 0.0000 0.0000 -6.9132 5.6676 -0.1873 -0.4447 0.0000 -0.0000
 1.6996 -102.4406 36.3502 -2.4333 4.5192 -175.0192 2.0031 2.0166 -0.6653 0.6612 -0.0626 -0.0470 1.8886 -0.1607 -0.1173 0.6589 -0.0883 0.1075 5.0266 -0.0164 -1.2989 4.7892 1.6391 -2.3964 5.5330 3.0823 -1.1611 -5.4959 -4.7593 6.1078 0.0000 0.0000 20.1956 -11.3002 6.6926 2.4732 0.0000 -0.0000 0.0000 -0.0000 0.0000 0.0000 9.1576 -4.0586 0.9382 -7.9481 11.6320 3.4085 -0.0000 -0.0000 -21.6639 -7.7410 -12.9016 -4.7780 -0.0000 -0.0000 0.0000 -0.0000 -0.0000 0.0000 -13.6229 10.1437 -19.2503 36.0528 0.0000 0.0000 -19.7015 -5.7347 -7.4548 -14.1623 0.0000 -0.0000 -7.4054 1.7825 15.0650 12.2769 0.0000 0.0000 -6.9072 5.6096 -0.1105 -0.4797 0.0000 -0.0000
 1.6751 -102.4077 36.3613 -2.3843 4.4171 -175.0630 2.0060 2.0138 -0.6823 0.6674 -0.0581 -0.0535 1.8583 -0.2466 -0.2040 0.6236 -0.1096 0.1144 4.7716 -0.0400 -1.2893 4.5296 1.6241 -2.3012 5.4249 3.2909 -1.1403 -5.4400 -4.3849 6.0796 0.0000 0.0000 19.9693 -11.3727 6.3369 2.5213 0.0000 -0.0000 -0.0000 -0.0000 -0.0000 -0.0000 9.1137 -4.3371 0.9050 -8.1125 11.2967 3.7616 -0.0000 -0.0000 -21.5239 -7.7999 -12.9241 -4.7767 0.0000 -0.0000 -0.0000 0.0000 -0.0000 -0.0000 -13.5877 10.0956 -19.5801 35.4074 0.0000 0.0000 -19.8309 -5.8309 -6.9870 -14.3831 0.0000 -0.0000 -7.2743 1.7290 15.0460 12.1983 0.0000 0.0000 -6.9078 5.5525 -0.0239 -0.5153 0.0000 -0.0000
 1.6529 -102.3707 36.3719 -2.3262 4.3216 -175.0972 2.0102 2.0217 -0.6958 0.6733 -0.0572 -0.0595 1.8249 -0.3306 -0.2933 0.5910 -0.1277 0.1213 4.5249 -0.0697 -1.2862 4.2674 1.6058 -2.2105 5.3198 3.5031 -1.1333 -5.3933 -4.0232 6.0411 0.0000 0.0000 19.7432 -11.4568 5.9602 2.5714 -0.0000 0.0000 0.0000 -0.0000 -0.0000 0.0000 9.0666 -4.6229 0.8675 -8.2588 10.9496 4.0963 -0.0000 -0.0000 -21.3583 -7.8832 -12.9284 -4.7775 0.0000 0.0000 -0.0000 0.0000 0.0000 -0.0000 -13.4783 10.0334 -19.9768 34.5699 0.0000 0.0000 -19.8753 -5.8560 -6.4732 -14.3323 0.0000 -0.0000 -7.1311 1.6777 15.0188 12.1267 0.0000 0.0000 -6.9160 5.5002 0.0640 -0.5517 0.0000 -0.0000
 1.6341 -102.3308 36.3810 -2.2820 4.2336 -175.1172 1.9920 2.0332 -0.7083 0.6757 -0.0542 -0.0665 1.7941 -0.4041 -0.3750 0.5612 -0.1429 0.1258 4.2943 -0.1080 -1.2930 4.0074 1.5841 -2.1267 5.2150 3.7066 -1.1410 -5.3540 -3.6785 5.9885 0.0000 0.0000 19.5237 -11.5510 5.5721 2.6226 -0.0000 0.0000 0.0000 -0.0000 -0.0000 0.0000 9.0112 -4.9141 0.8223 -8.3829 10.6001 4.4078 -0.0000 -0.0000 -21.1736 -7.9833 -12.9133 -4.7770 0.0000 0.0000 -0.0000 -0.0000 0.0000 -0.0000 -13.3134 9.9562 -20.4401 33.5574 0.0000 0.0000 -19.8182 -5.7924 -5.9289 -13.9619 0.0000 -0.0000 -7.0070 1.6289 14.9756 12.0744 0.0000 0.0000 -6.9378 5.4532 0.1567 -0.5883 0.0000 -0.0000
 1.6186 -102.2877 36.3881 -2.2340 4.1711 -175.1254 1.9737 2.0572 -0.7188 0.6734 -0.0448 -0.0719 1.7617 -0.4621 -0.4500 0.5343 -0.1565 0.1304 4.0870 -0.1533 -1.3107 3.7592 1.5588 -2.0530 5.1139 3.9039 -1.1654 -5.3247 -3.3660 5.9209 0.0000 0.0000 19.3129 -11.6545 5.1811 2.6760 0.0000 -0.0000 -0.0000 0.0000 -0.0000 0.0000 8.9507 -5.2102 0.7697 -8.4856 10.2594 4.6899 -0.0000 -0.0000 -20.9742 -8.0956 -12.8806 -4.7763 0.0000 0.0000 0.0000 -0.0000 0.0000 -0.0000 -13.0729 9.8820 -20.9675 32.4049 0.0000 0.0000 -19.6584 -5.6308 -5.3614 -13.2516 0.0000 -0.0000 -6.8783 1.6001 14.9167 12.0340 0.0000 0.0000 -6.9698 5.4138 0.2549 -0.6265 0.0000 -0.0000
 1.6073 -102.2424 36.3929 -2.1966 4.1296 -175.1220 1.9384 2.0961 -0.7248 0.6691 -0.0346 -0.0768 1.7281 -0.5109 -0.5154 0.5110 -0.1605 0.1325 3.9045 -0.2067 -1.3384 3.5278 1.5308 -1.9903 5.0140 4.0873 -1.2041 -5.3049 -3.0851 5.8385 0.0000 0.0000 19.1113 -11.7663 4.7906 2.7319 0.0000 -0.0000 -0.0000 -0.0000 -0.0000 -0.0000 8.8818 -5.5073 0.7132 -8.5668 9.9319 4.9395 -0.0000 -0.0000 -20.7682 -8.2135 -12.8359 -4.7732 0.0000 -0.0000 -0.0000 -0.0000 -0.0000 -0.0000 -12.7761 9.8046 -21.5474 31.1526 0.0000 0.0000 -19.3984 -5.3670 -4.7880 -12.2126 0.0000 -0.0000 -6.7656 1.5851 14.8426 12.0142 0.0000 0.0000 -7.0166 5.3814 0.3574 -0.6667 0.0000 -0.0000
 1.5998 -102.1953 36.3951 -2.1649 4.1168 -175.1115 1.8955 2.1480 -0.7285 0.6611 -0.0210 -0.0780 1.6912 -0.5390 -0.5696 0.4908 -0.1605 0.1348 3.7481 -0.2645 -1.3765 3.3170 1.4995 -1.9404 4.9155 4.2599 -1.2572 -5.2982 -2.8427 5.7403 0.0000 0.0000 18.9192 -11.8827 4.3984 2.7897 0.0000 0.0000 -0.0000 0.0000 0.0000 -0.0000 8.8011 -5.8019 0.6497 -8.6273 9.6187 5.1602 -0.0000 -0.0000 -20.5628 -8.3286 -12.7823 -4.7673 0.0000 0.0000 -0.0000 0.0000 0.0000 0.0000 -12.4296 9.7352 -22.1638 29.8569 0.0000 0.0000 -19.0564 -5.0069 -4.2192 -10.8862 0.0000 -0.0000 -6.6625 1.5927 14.7492 12.0119 0.0000 0.0000 -7.0763 5.3552 0.4719 -0.7096 0.0000 -0.0000
 1.5962 -102.1469 36.3951 -2.1394 4.1263 -175.0987 1.8452 2.2086 -0.7284 0.6502 -0.0070 -0.0773 1.6516 -0.5488 -0.6089 0.4730 -0.1542 0.1358 3.6144 -0.3242 -1.4221 3.1297 1.4659 -1.9031 4.8155 4.4186 -1.3203 -5.3027 -2.6313 5.6280 0.0000 0.0000 18.7329 -12.0070 3.9983 2.8497 -0.0000 0.0000 0.0000 -0.0000 -0.0000 -0.0000 8.7078 -6.0889 0.5827 -8.6721 9.3188 5.3538 -0.0000 -0.0000 -20.3643 -8.4351 -12.7275 -4.7597 0.0000 0.0000 -0.0000 -0.0000 0.0000 -0.0000 -12.0477 9.6694 -22.7950 28.5712 0.0000 0.0000 -18.6550 -4.5638 -3.6689 -9.3393 0.0000 -0.0000 -6.5706 1.6162 14.6381 12.0274 0.0000 0.0000 -7.1489 5.3332 0.6004 -0.7563 0.0000 -0.0000
 1.5961 -102.0979 36.3934 -2.1188 4.1505 -175.0899 1.7898 2.2698 -0.7239 0.6364 0.0063 -0.0752 1.6096 -0.5411 -0.6315 0.4570 -0.1418 0.1355 3.4980 -0.3824 -1.4723 2.9656 1.4311 -1.8774 4.7115 4.5626 -1.3895 -5.3179 -2.4428 5.5041 0.0000 0.0000 18.5480 -12.1404 3.5809 2.9095 0.0000 -0.0000 0.0000 0.0000 -0.0000 -0.0000 8.5998 -6.3616 0.5153 -8.7053 9.0268 5.5244 -0.0000 -0.0000 -20.1787 -8.5273 -12.6784 -4.7501 -0.0000 0.0000 -0.0000 -0.0000 -0.0000 -0.0000 -11.6467 9.6027 -23.4129 27.3472 0.0000 0.0000 -18.2222 -4.0579 -3.1516 -7.6585 0.0000 -0.0000 -6.4894 1.6485 14.5105 12.0588 0.0000 0.0000 -7.2328 5.3129 0.7472 -0.8079 0.0000 -0.0000
 1.5992 -102.0488 36.3910 -2.1015 4.1777 -175.0916 1.7315 2.3202 -0.7151 0.6201 0.0184 -0.0719 1.5664 -0.5184 -0.6368 0.4421 -0.1239 0.1340 3.3924 -0.4349 -1.5228 2.8230 1.3955 -1.8620 4.6014 4.6913 -1.4597 -5.3432 -2.2663 5.3718 0.0000 0.0000 18.3589 -12.2868 3.1373 2.9661 0.0000 -0.0000 -0.0000 -0.0000 0.0000 0.0000 8.4763 -6.6121 0.4509 -8.7328 8.7355 5.6777 -0.0000 -0.0000 -20.0116 -8.5998 -12.6420 -4.7386 0.0000 0.0000 -0.0000 0.0000 0.0000 0.0000 -11.2419 9.5275 -23.9885 26.2266 0.0000 0.0000 -17.7863 -3.5149 -2.6803 -5.9410 0.0000 -0.0000 -6.4175 1.6788 14.3684 12.1034 0.0000 0.0000 -7.3256 5.2909 0.9164 -0.8641 0.0000 -0.0000
 1.6050 -101.9999 36.3889 -2.0855 4.1957 -175.1098 1.6722 2.3492 -0.7018 0.6018 0.0282 -0.0680 1.5230 -0.4842 -0.6251 0.4276 -0.1015 0.1313 3.2911 -0.4771 -1.5692 2.6977 1.3598 -1.8550 4.4838 4.8052 -1.5260 -5.3782 -2.0907 5.2353 0.0000 0.0000 18.1600 -12.4505 2.6612 3.0152 0.0000 -0.0000 -0.0000 -0.0000 0.0000 -0.0000 8.3377 -6.8330 0.3941 -8.7597 8.4382 5.8186 -0.0000 -0.0000 -19.8661 -8.6531 -12.6236 -4.7273 0.0000 0.0000 -0.0000 0.0000 0.0000 -0.0000 -10.8459 9.4350 -24.4952 25.2377 0.0000 0.0000 -17.3722 -2.9641 -2.2649 -4.2859 0.0000 -0.0000 -6.3526 1.6960 14.2147 12.1570 0.0000 0.0000 -7.4240 5.2644 1.1107 -0.9252 0.0000 -0.0000
 1.6132 -101.9515 36.3881 -2.0689 4.1923 -175.1491 1.6134 2.3461 -0.6848 0.5820 0.0361 -0.0635 1.4811 -0.4437 -0.5981 0.4133 -0.0757 0.1277 3.1872 -0.5050 -1.6067 2.5866 1.3254 -1.8540 4.3581 4.9059 -1.5844 -5.4213 -1.9064 5.0997 0.0000 0.0000 17.9463 -12.6340 2.1545 3.0491 -0.0000 0.0000 0.0000 -0.0000 -0.0000 -0.0000 8.1865 -7.0177 0.3497 -8.7922 8.1291 5.9519 -0.0000 -0.0000 -19.7455 -8.6849 -12.6295 -4.7169 -0.0000 -0.0000 0.0000 0.0000 -0.0000 -0.0000 -10.4671 9.3160 -24.9134 24.3916 0.0000 0.0000 -16.9976 -2.4354 -1.9098 -2.7826 0.0000 -0.0000 -6.2921 1.6886 14.0534 12.2157 0.0000 0.0000 -7.5246 5.2301 1.3317 -0.9905 0.0000 -0.0000
